<svg width="23" height="23" viewBox="0 0 23 23" fill="none" xmlns="http://www.w3.org/2000/svg">
<path d="M2.25 6.31794H18V4.21196H2.25V6.31794ZM2.25 21.0598C1.63125 21.0598 1.10156 20.8536 0.660938 20.4412C0.220313 20.0288 0 19.533 0 18.9538V4.21196C0 3.63282 0.220313 3.13704 0.660938 2.72461C1.10156 2.31219 1.63125 2.10598 2.25 2.10598H3.375V0H5.625V2.10598H14.625V0H16.875V2.10598H18C18.6187 2.10598 19.1484 2.31219 19.5891 2.72461C20.0297 3.13704 20.25 3.63282 20.25 4.21196V10.1877C19.8937 10.0297 19.5281 9.89811 19.1531 9.79281C18.7781 9.68752 18.3937 9.60854 18 9.55589V8.42393H2.25V18.9538H9.3375C9.46875 19.3399 9.62344 19.7085 9.80156 20.0595C9.97969 20.4105 10.1906 20.7439 10.4344 21.0598H2.25ZM16.875 22.1128C15.3188 22.1128 13.9922 21.5995 12.8953 20.5728C11.7984 19.5461 11.25 18.3045 11.25 16.8479C11.25 15.3912 11.7984 14.1496 12.8953 13.1229C13.9922 12.0962 15.3188 11.5829 16.875 11.5829C18.4312 11.5829 19.7578 12.0962 20.8547 13.1229C21.9516 14.1496 22.5 15.3912 22.5 16.8479C22.5 18.3045 21.9516 19.5461 20.8547 20.5728C19.7578 21.5995 18.4312 22.1128 16.875 22.1128ZM18.7594 19.3487L19.5469 18.6116L17.4375 16.6373V13.6889H16.3125V17.0585L18.7594 19.3487Z" fill="white"/>
</svg>
