<svg width="27" height="27" viewBox="0 0 27 27" fill="none" xmlns="http://www.w3.org/2000/svg">
<mask id="mask0_89_63" style="mask-type:alpha" maskUnits="userSpaceOnUse" x="0" y="0" width="27" height="27">
<rect width="27" height="27" fill="#D9D9D9"/>
</mask>
<g mask="url(#mask0_89_63)">
<path d="M3.09374 21.6563L9.08437 15.6657C9.51562 15.2344 10.05 15.0188 10.6875 15.0188C11.325 15.0188 11.8594 15.2344 12.2906 15.6657L15.1875 18.5625L22.3875 10.4344C22.5937 10.1907 22.8609 10.0688 23.1891 10.0688C23.5172 10.0688 23.7937 10.1813 24.0187 10.4063C24.225 10.6125 24.3328 10.861 24.3422 11.1516C24.3516 11.4422 24.2531 11.7 24.0469 11.925L16.7625 20.1375C16.3312 20.625 15.7969 20.8828 15.1594 20.911C14.5219 20.9391 13.9687 20.7188 13.5 20.25L10.6875 17.4375L4.78124 23.3438C4.53749 23.5875 4.25624 23.7094 3.93749 23.7094C3.61874 23.7094 3.33749 23.5875 3.09374 23.3438C2.84999 23.1 2.72812 22.8188 2.72812 22.5C2.72812 22.1813 2.84999 21.9 3.09374 21.6563ZM3.09374 14.9063L9.08437 8.91566C9.51562 8.48441 10.05 8.26879 10.6875 8.26879C11.325 8.26879 11.8594 8.48441 12.2906 8.91566L15.1875 11.8125L22.3875 3.68441C22.5937 3.44066 22.8609 3.31879 23.1891 3.31879C23.5172 3.31879 23.7937 3.43129 24.0187 3.65629C24.225 3.86254 24.3328 4.11097 24.3422 4.4016C24.3516 4.69222 24.2531 4.95004 24.0469 5.17504L16.7625 13.3875C16.3312 13.875 15.7969 14.1328 15.1594 14.161C14.5219 14.1891 13.9687 13.9688 13.5 13.5L10.6875 10.6875L4.78124 16.5938C4.53749 16.8375 4.25624 16.9594 3.93749 16.9594C3.61874 16.9594 3.33749 16.8375 3.09374 16.5938C2.84999 16.35 2.72812 16.0688 2.72812 15.75C2.72812 15.4313 2.84999 15.15 3.09374 14.9063Z" fill="white"/>
</g>
</svg>
