<svg width="32" height="30" viewBox="0 0 32 30" fill="none" xmlns="http://www.w3.org/2000/svg">
<mask id="mask0_89_60" style="mask-type:alpha" maskUnits="userSpaceOnUse" x="0" y="0" width="32" height="30">
<rect width="31.0732" height="29.878" fill="#D9D9D9"/>
</mask>
<g mask="url(#mask0_89_60)">
<path d="M0 22.4085V20.4478C0 19.5556 0.474729 18.8294 1.42419 18.2692C2.37365 17.7089 3.6252 17.4288 5.17886 17.4288C5.45938 17.4288 5.72912 17.434 5.98806 17.4444C6.247 17.4548 6.49516 17.4807 6.73252 17.5222C6.43042 17.9579 6.20385 18.4144 6.0528 18.8916C5.90175 19.3688 5.82622 19.8668 5.82622 20.3855V22.4085H0ZM7.76829 22.4085V20.3855C7.76829 19.7216 7.95711 19.1147 8.33473 18.5648C8.71236 18.015 9.24643 17.5326 9.93694 17.1176C10.6275 16.7026 11.4528 16.3914 12.4131 16.1839C13.3733 15.9764 14.4145 15.8727 15.5366 15.8727C16.6803 15.8727 17.7322 15.9764 18.6925 16.1839C19.6527 16.3914 20.4781 16.7026 21.1686 17.1176C21.8591 17.5326 22.3878 18.015 22.7546 18.5648C23.1215 19.1147 23.3049 19.7216 23.3049 20.3855V22.4085H7.76829ZM25.247 22.4085V20.3855C25.247 19.846 25.1768 19.3377 25.0366 18.8605C24.8963 18.3833 24.6859 17.9372 24.4054 17.5222C24.6428 17.4807 24.8855 17.4548 25.1337 17.4444C25.3818 17.434 25.6354 17.4288 25.8943 17.4288C27.448 17.4288 28.6995 17.7038 29.649 18.2536C30.5984 18.8034 31.0732 19.5348 31.0732 20.4478V22.4085H25.247ZM10.5196 19.9187H20.586C20.3702 19.5037 19.7714 19.1406 18.7896 18.8294C17.8077 18.5181 16.7234 18.3625 15.5366 18.3625C14.3498 18.3625 13.2654 18.5181 12.2836 18.8294C11.3018 19.1406 10.7138 19.5037 10.5196 19.9187ZM5.17886 16.1839C4.46677 16.1839 3.85717 15.9401 3.35008 15.4525C2.84298 14.9649 2.58943 14.3788 2.58943 13.6941C2.58943 12.9886 2.84298 12.3973 3.35008 11.9201C3.85717 11.4428 4.46677 11.2042 5.17886 11.2042C5.91253 11.2042 6.52752 11.4428 7.02383 11.9201C7.52014 12.3973 7.76829 12.9886 7.76829 13.6941C7.76829 14.3788 7.52014 14.9649 7.02383 15.4525C6.52752 15.9401 5.91253 16.1839 5.17886 16.1839ZM25.8943 16.1839C25.1822 16.1839 24.5726 15.9401 24.0655 15.4525C23.5584 14.9649 23.3049 14.3788 23.3049 13.6941C23.3049 12.9886 23.5584 12.3973 24.0655 11.9201C24.5726 11.4428 25.1822 11.2042 25.8943 11.2042C26.628 11.2042 27.243 11.4428 27.7393 11.9201C28.2356 12.3973 28.4837 12.9886 28.4837 13.6941C28.4837 14.3788 28.2356 14.9649 27.7393 15.4525C27.243 15.9401 26.628 16.1839 25.8943 16.1839ZM15.5366 14.939C14.4577 14.939 13.5406 14.5759 12.7853 13.8497C12.0301 13.1235 11.6524 12.2417 11.6524 11.2042C11.6524 10.1461 12.0301 9.25905 12.7853 8.54322C13.5406 7.8274 14.4577 7.46948 15.5366 7.46948C16.6371 7.46948 17.5596 7.8274 18.304 8.54322C19.0485 9.25905 19.4207 10.1461 19.4207 11.2042C19.4207 12.2417 19.0485 13.1235 18.304 13.8497C17.5596 14.5759 16.6371 14.939 15.5366 14.939ZM15.5366 12.4492C15.9034 12.4492 16.2109 12.3299 16.4591 12.0912C16.7072 11.8526 16.8313 11.557 16.8313 11.2042C16.8313 10.8515 16.7072 10.5558 16.4591 10.3172C16.2109 10.0786 15.9034 9.95932 15.5366 9.95932C15.1698 9.95932 14.8623 10.0786 14.6141 10.3172C14.3659 10.5558 14.2419 10.8515 14.2419 11.2042C14.2419 11.557 14.3659 11.8526 14.6141 12.0912C14.8623 12.3299 15.1698 12.4492 15.5366 12.4492Z" fill="white"/>
</g>
</svg>
